<mxfile host="Electron" modified="2024-09-14T11:55:28.795Z" agent="Mozilla/5.0 (Windows NT 10.0; Win64; x64) AppleWebKit/537.36 (KHTML, like Gecko) draw.io/22.1.11 Chrome/114.0.5735.289 Electron/25.9.8 Safari/537.36" etag="OnxYyGbFC2n5Ctc79j1Y" version="22.1.11" type="device">
  <diagram name="第 1 页" id="9KpR6PSarjAJxaDIPFJ5">
    <mxGraphModel dx="1158" dy="727" grid="1" gridSize="10" guides="1" tooltips="1" connect="1" arrows="1" fold="1" page="1" pageScale="1" pageWidth="827" pageHeight="1169" math="0" shadow="0">
      <root>
        <mxCell id="0" />
        <mxCell id="1" parent="0" />
        <mxCell id="OUS-oGFCs6h1HQ9Ki9yX-18" style="rounded=0;orthogonalLoop=1;jettySize=auto;html=1;exitX=0.5;exitY=1;exitDx=0;exitDy=0;entryX=0.5;entryY=0;entryDx=0;entryDy=0;" parent="1" source="OUS-oGFCs6h1HQ9Ki9yX-10" target="OUS-oGFCs6h1HQ9Ki9yX-16" edge="1">
          <mxGeometry relative="1" as="geometry" />
        </mxCell>
        <mxCell id="OUS-oGFCs6h1HQ9Ki9yX-10" value="发送请求到服务器" style="rounded=1;whiteSpace=wrap;html=1;absoluteArcSize=1;arcSize=14;strokeWidth=2;" parent="1" vertex="1">
          <mxGeometry x="344" y="30" width="130" height="60" as="geometry" />
        </mxCell>
        <mxCell id="OUS-oGFCs6h1HQ9Ki9yX-22" style="edgeStyle=orthogonalEdgeStyle;rounded=0;orthogonalLoop=1;jettySize=auto;html=1;exitX=1;exitY=0.5;exitDx=0;exitDy=0;exitPerimeter=0;entryX=0.5;entryY=0;entryDx=0;entryDy=0;" parent="1" source="OUS-oGFCs6h1HQ9Ki9yX-13" target="OUS-oGFCs6h1HQ9Ki9yX-20" edge="1">
          <mxGeometry relative="1" as="geometry" />
        </mxCell>
        <mxCell id="OUS-oGFCs6h1HQ9Ki9yX-13" value="是否为大 V" style="strokeWidth=2;html=1;shape=mxgraph.flowchart.decision;whiteSpace=wrap;" parent="1" vertex="1">
          <mxGeometry x="359" y="220" width="100" height="100" as="geometry" />
        </mxCell>
        <mxCell id="DEH15WvyBEzNy2TxyOI4-5" style="rounded=0;orthogonalLoop=1;jettySize=auto;html=1;exitX=0.5;exitY=1;exitDx=0;exitDy=0;entryX=0.5;entryY=0;entryDx=0;entryDy=0;entryPerimeter=0;" parent="1" source="OUS-oGFCs6h1HQ9Ki9yX-16" target="OUS-oGFCs6h1HQ9Ki9yX-13" edge="1">
          <mxGeometry relative="1" as="geometry">
            <mxPoint x="409" y="110" as="targetPoint" />
          </mxGeometry>
        </mxCell>
        <mxCell id="OUS-oGFCs6h1HQ9Ki9yX-16" value="保存到发件箱（内容 + 索引）中" style="rounded=1;whiteSpace=wrap;html=1;absoluteArcSize=1;arcSize=14;strokeWidth=2;" parent="1" vertex="1">
          <mxGeometry x="344" y="130" width="130" height="60" as="geometry" />
        </mxCell>
        <mxCell id="OUS-oGFCs6h1HQ9Ki9yX-86" style="rounded=0;orthogonalLoop=1;jettySize=auto;html=1;exitX=0.5;exitY=1;exitDx=0;exitDy=0;entryX=0.5;entryY=0;entryDx=0;entryDy=0;" parent="1" source="OUS-oGFCs6h1HQ9Ki9yX-20" target="OUS-oGFCs6h1HQ9Ki9yX-21" edge="1">
          <mxGeometry relative="1" as="geometry">
            <mxPoint x="569" y="410" as="targetPoint" />
          </mxGeometry>
        </mxCell>
        <mxCell id="OUS-oGFCs6h1HQ9Ki9yX-20" value="获取关注列表" style="rounded=1;whiteSpace=wrap;html=1;absoluteArcSize=1;arcSize=14;strokeWidth=2;" parent="1" vertex="1">
          <mxGeometry x="504" y="310" width="130" height="60" as="geometry" />
        </mxCell>
        <mxCell id="OUS-oGFCs6h1HQ9Ki9yX-21" value="使用 Kafka ，将帖子索引异步推送到收件箱" style="rounded=1;whiteSpace=wrap;html=1;absoluteArcSize=1;arcSize=14;strokeWidth=2;" parent="1" vertex="1">
          <mxGeometry x="504" y="450" width="130" height="60" as="geometry" />
        </mxCell>
        <mxCell id="OUS-oGFCs6h1HQ9Ki9yX-51" style="rounded=0;orthogonalLoop=1;jettySize=auto;html=1;exitX=0.5;exitY=1;exitDx=0;exitDy=0;" parent="1" source="OUS-oGFCs6h1HQ9Ki9yX-50" target="OUS-oGFCs6h1HQ9Ki9yX-53" edge="1">
          <mxGeometry relative="1" as="geometry">
            <mxPoint x="189" y="1010" as="targetPoint" />
          </mxGeometry>
        </mxCell>
        <mxCell id="OUS-oGFCs6h1HQ9Ki9yX-50" value="客户端传入 size 与 lastTimeStamp" style="whiteSpace=wrap;html=1;" parent="1" vertex="1">
          <mxGeometry x="129" y="930" width="120" height="60" as="geometry" />
        </mxCell>
        <mxCell id="FtUdTVxQBX1jpSCOM2J4-9" style="rounded=0;orthogonalLoop=1;jettySize=auto;html=1;exitX=0.5;exitY=1;exitDx=0;exitDy=0;entryX=0.5;entryY=0;entryDx=0;entryDy=0;" edge="1" parent="1" source="OUS-oGFCs6h1HQ9Ki9yX-53" target="OUS-oGFCs6h1HQ9Ki9yX-122">
          <mxGeometry relative="1" as="geometry" />
        </mxCell>
        <mxCell id="OUS-oGFCs6h1HQ9Ki9yX-53" value="获取关注列表" style="whiteSpace=wrap;html=1;" parent="1" vertex="1">
          <mxGeometry x="129" y="1040" width="120" height="60" as="geometry" />
        </mxCell>
        <mxCell id="OUS-oGFCs6h1HQ9Ki9yX-71" value="结束" style="rounded=1;whiteSpace=wrap;html=1;absoluteArcSize=1;arcSize=14;strokeWidth=2;" parent="1" vertex="1">
          <mxGeometry x="353" y="780" width="130" height="60" as="geometry" />
        </mxCell>
        <mxCell id="OUS-oGFCs6h1HQ9Ki9yX-170" style="edgeStyle=orthogonalEdgeStyle;rounded=0;orthogonalLoop=1;jettySize=auto;html=1;exitX=1;exitY=0.5;exitDx=0;exitDy=0;entryX=0;entryY=0.5;entryDx=0;entryDy=0;entryPerimeter=0;" parent="1" source="OUS-oGFCs6h1HQ9Ki9yX-77" target="OUS-oGFCs6h1HQ9Ki9yX-171" edge="1">
          <mxGeometry relative="1" as="geometry">
            <mxPoint x="389" y="1305" as="targetPoint" />
          </mxGeometry>
        </mxCell>
        <mxCell id="OUS-oGFCs6h1HQ9Ki9yX-77" value="是否获取到足够数量的帖子，或者是否有帖子可读" style="rhombus;whiteSpace=wrap;html=1;" parent="1" vertex="1">
          <mxGeometry x="119" y="1250" width="140" height="110" as="geometry" />
        </mxCell>
        <mxCell id="OUS-oGFCs6h1HQ9Ki9yX-98" style="edgeStyle=orthogonalEdgeStyle;rounded=0;orthogonalLoop=1;jettySize=auto;html=1;exitX=0.5;exitY=1;exitDx=0;exitDy=0;" parent="1" source="OUS-oGFCs6h1HQ9Ki9yX-79" target="OUS-oGFCs6h1HQ9Ki9yX-97" edge="1">
          <mxGeometry relative="1" as="geometry" />
        </mxCell>
        <mxCell id="OUS-oGFCs6h1HQ9Ki9yX-106" style="edgeStyle=orthogonalEdgeStyle;rounded=0;orthogonalLoop=1;jettySize=auto;html=1;exitX=1;exitY=0.5;exitDx=0;exitDy=0;entryX=0.5;entryY=0;entryDx=0;entryDy=0;" parent="1" source="OUS-oGFCs6h1HQ9Ki9yX-79" target="OUS-oGFCs6h1HQ9Ki9yX-89" edge="1">
          <mxGeometry relative="1" as="geometry" />
        </mxCell>
        <mxCell id="OUS-oGFCs6h1HQ9Ki9yX-79" value="&amp;nbsp;outbox / inbox 缓存是否存在" style="rhombus;whiteSpace=wrap;html=1;" parent="1" vertex="1">
          <mxGeometry x="289" y="1490" width="120" height="100" as="geometry" />
        </mxCell>
        <mxCell id="OUS-oGFCs6h1HQ9Ki9yX-81" style="edgeStyle=orthogonalEdgeStyle;rounded=0;orthogonalLoop=1;jettySize=auto;html=1;exitX=0.5;exitY=1;exitDx=0;exitDy=0;entryX=0.5;entryY=0;entryDx=0;entryDy=0;" parent="1" source="OUS-oGFCs6h1HQ9Ki9yX-77" target="OUS-oGFCs6h1HQ9Ki9yX-125" edge="1">
          <mxGeometry relative="1" as="geometry">
            <mxPoint x="189" y="1386" as="targetPoint" />
          </mxGeometry>
        </mxCell>
        <mxCell id="wPySskJd2ucsSnRAgLdS-5" style="edgeStyle=orthogonalEdgeStyle;rounded=0;orthogonalLoop=1;jettySize=auto;html=1;exitX=0.5;exitY=1;exitDx=0;exitDy=0;entryX=0.5;entryY=0;entryDx=0;entryDy=0;" parent="1" source="OUS-oGFCs6h1HQ9Ki9yX-89" target="OUS-oGFCs6h1HQ9Ki9yX-97" edge="1">
          <mxGeometry relative="1" as="geometry">
            <Array as="points">
              <mxPoint x="504" y="1660" />
              <mxPoint x="349" y="1660" />
            </Array>
          </mxGeometry>
        </mxCell>
        <mxCell id="OUS-oGFCs6h1HQ9Ki9yX-89" value="构建缓存" style="rounded=1;whiteSpace=wrap;html=1;absoluteArcSize=1;arcSize=14;strokeWidth=2;" parent="1" vertex="1">
          <mxGeometry x="439" y="1575" width="130" height="60" as="geometry" />
        </mxCell>
        <mxCell id="OUS-oGFCs6h1HQ9Ki9yX-103" style="edgeStyle=orthogonalEdgeStyle;rounded=0;orthogonalLoop=1;jettySize=auto;html=1;exitX=0.5;exitY=1;exitDx=0;exitDy=0;" parent="1" source="OUS-oGFCs6h1HQ9Ki9yX-97" target="OUS-oGFCs6h1HQ9Ki9yX-102" edge="1">
          <mxGeometry relative="1" as="geometry" />
        </mxCell>
        <mxCell id="OUS-oGFCs6h1HQ9Ki9yX-97" value="按 lastTimeStamp 查询 size 个" style="rounded=0;whiteSpace=wrap;html=1;" parent="1" vertex="1">
          <mxGeometry x="289" y="1700" width="120" height="60" as="geometry" />
        </mxCell>
        <mxCell id="OUS-oGFCs6h1HQ9Ki9yX-131" style="rounded=0;orthogonalLoop=1;jettySize=auto;html=1;exitX=1;exitY=0.5;exitDx=0;exitDy=0;entryX=0;entryY=0.5;entryDx=0;entryDy=0;" parent="1" source="OUS-oGFCs6h1HQ9Ki9yX-102" target="OUS-oGFCs6h1HQ9Ki9yX-108" edge="1">
          <mxGeometry relative="1" as="geometry" />
        </mxCell>
        <mxCell id="OUS-oGFCs6h1HQ9Ki9yX-137" style="edgeStyle=orthogonalEdgeStyle;rounded=0;orthogonalLoop=1;jettySize=auto;html=1;exitX=0.5;exitY=1;exitDx=0;exitDy=0;entryX=1;entryY=0.5;entryDx=0;entryDy=0;" parent="1" source="OUS-oGFCs6h1HQ9Ki9yX-102" target="OUS-oGFCs6h1HQ9Ki9yX-134" edge="1">
          <mxGeometry relative="1" as="geometry" />
        </mxCell>
        <mxCell id="OUS-oGFCs6h1HQ9Ki9yX-102" value="数量是否足够&lt;br&gt;" style="rhombus;whiteSpace=wrap;html=1;" parent="1" vertex="1">
          <mxGeometry x="289" y="1790" width="120" height="100" as="geometry" />
        </mxCell>
        <mxCell id="OUS-oGFCs6h1HQ9Ki9yX-113" style="edgeStyle=orthogonalEdgeStyle;rounded=0;orthogonalLoop=1;jettySize=auto;html=1;exitX=1;exitY=0.5;exitDx=0;exitDy=0;entryX=0.5;entryY=0;entryDx=0;entryDy=0;" parent="1" source="OUS-oGFCs6h1HQ9Ki9yX-108" target="OUS-oGFCs6h1HQ9Ki9yX-114" edge="1">
          <mxGeometry relative="1" as="geometry">
            <mxPoint x="699" y="2050" as="targetPoint" />
          </mxGeometry>
        </mxCell>
        <mxCell id="OUS-oGFCs6h1HQ9Ki9yX-119" style="rounded=0;orthogonalLoop=1;jettySize=auto;html=1;exitX=0.5;exitY=1;exitDx=0;exitDy=0;entryX=0.5;entryY=0;entryDx=0;entryDy=0;" parent="1" source="OUS-oGFCs6h1HQ9Ki9yX-108" target="OUS-oGFCs6h1HQ9Ki9yX-118" edge="1">
          <mxGeometry relative="1" as="geometry" />
        </mxCell>
        <mxCell id="OUS-oGFCs6h1HQ9Ki9yX-108" value="是否还有更多帖子可读" style="rhombus;whiteSpace=wrap;html=1;" parent="1" vertex="1">
          <mxGeometry x="449" y="1765" width="120" height="100" as="geometry" />
        </mxCell>
        <mxCell id="OUS-oGFCs6h1HQ9Ki9yX-140" style="edgeStyle=orthogonalEdgeStyle;rounded=0;orthogonalLoop=1;jettySize=auto;html=1;exitX=0.5;exitY=1;exitDx=0;exitDy=0;entryX=1;entryY=0.5;entryDx=0;entryDy=0;" parent="1" source="OUS-oGFCs6h1HQ9Ki9yX-114" target="OUS-oGFCs6h1HQ9Ki9yX-134" edge="1">
          <mxGeometry relative="1" as="geometry" />
        </mxCell>
        <mxCell id="OUS-oGFCs6h1HQ9Ki9yX-114" value="数据库查询未被删除的帖子" style="rounded=0;whiteSpace=wrap;html=1;" parent="1" vertex="1">
          <mxGeometry x="659" y="1920" width="120" height="60" as="geometry" />
        </mxCell>
        <mxCell id="OUS-oGFCs6h1HQ9Ki9yX-139" style="edgeStyle=orthogonalEdgeStyle;rounded=0;orthogonalLoop=1;jettySize=auto;html=1;exitX=0.5;exitY=1;exitDx=0;exitDy=0;entryX=1;entryY=0.5;entryDx=0;entryDy=0;" parent="1" source="OUS-oGFCs6h1HQ9Ki9yX-118" target="OUS-oGFCs6h1HQ9Ki9yX-134" edge="1">
          <mxGeometry relative="1" as="geometry" />
        </mxCell>
        <mxCell id="OUS-oGFCs6h1HQ9Ki9yX-118" value="打上 NoMore 标记" style="rounded=0;whiteSpace=wrap;html=1;" parent="1" vertex="1">
          <mxGeometry x="449" y="1920" width="120" height="60" as="geometry" />
        </mxCell>
        <mxCell id="OUS-oGFCs6h1HQ9Ki9yX-124" style="edgeStyle=orthogonalEdgeStyle;rounded=0;orthogonalLoop=1;jettySize=auto;html=1;exitX=0.5;exitY=1;exitDx=0;exitDy=0;entryX=0.5;entryY=0;entryDx=0;entryDy=0;" parent="1" source="OUS-oGFCs6h1HQ9Ki9yX-122" target="OUS-oGFCs6h1HQ9Ki9yX-77" edge="1">
          <mxGeometry relative="1" as="geometry" />
        </mxCell>
        <mxCell id="OUS-oGFCs6h1HQ9Ki9yX-122" value="创建一组 NoMore 标记" style="whiteSpace=wrap;html=1;" parent="1" vertex="1">
          <mxGeometry x="129" y="1160" width="120" height="60" as="geometry" />
        </mxCell>
        <mxCell id="OUS-oGFCs6h1HQ9Ki9yX-127" style="edgeStyle=orthogonalEdgeStyle;rounded=0;orthogonalLoop=1;jettySize=auto;html=1;exitX=1;exitY=0.5;exitDx=0;exitDy=0;entryX=0.5;entryY=0;entryDx=0;entryDy=0;" parent="1" source="OUS-oGFCs6h1HQ9Ki9yX-125" target="OUS-oGFCs6h1HQ9Ki9yX-79" edge="1">
          <mxGeometry relative="1" as="geometry" />
        </mxCell>
        <mxCell id="OUS-oGFCs6h1HQ9Ki9yX-125" value="是否有 NoMore 标记" style="rhombus;whiteSpace=wrap;html=1;" parent="1" vertex="1">
          <mxGeometry x="129" y="1400" width="120" height="100" as="geometry" />
        </mxCell>
        <mxCell id="OUS-oGFCs6h1HQ9Ki9yX-145" style="edgeStyle=orthogonalEdgeStyle;rounded=0;orthogonalLoop=1;jettySize=auto;html=1;exitX=0.5;exitY=1;exitDx=0;exitDy=0;entryX=0.5;entryY=0;entryDx=0;entryDy=0;" parent="1" source="OUS-oGFCs6h1HQ9Ki9yX-134" target="OUS-oGFCs6h1HQ9Ki9yX-166" edge="1">
          <mxGeometry relative="1" as="geometry">
            <mxPoint x="189" y="2110" as="targetPoint" />
          </mxGeometry>
        </mxCell>
        <mxCell id="OUS-oGFCs6h1HQ9Ki9yX-134" value="数据聚合" style="rounded=1;whiteSpace=wrap;html=1;absoluteArcSize=1;arcSize=14;strokeWidth=2;" parent="1" vertex="1">
          <mxGeometry x="124" y="2000" width="130" height="60" as="geometry" />
        </mxCell>
        <mxCell id="OUS-oGFCs6h1HQ9Ki9yX-135" style="edgeStyle=orthogonalEdgeStyle;rounded=0;orthogonalLoop=1;jettySize=auto;html=1;exitX=0.5;exitY=1;exitDx=0;exitDy=0;entryX=0.5;entryY=-0.1;entryDx=0;entryDy=0;entryPerimeter=0;" parent="1" source="OUS-oGFCs6h1HQ9Ki9yX-125" target="OUS-oGFCs6h1HQ9Ki9yX-134" edge="1">
          <mxGeometry relative="1" as="geometry" />
        </mxCell>
        <mxCell id="OUS-oGFCs6h1HQ9Ki9yX-169" style="edgeStyle=orthogonalEdgeStyle;rounded=0;orthogonalLoop=1;jettySize=auto;html=1;exitX=0;exitY=0.5;exitDx=0;exitDy=0;entryX=0;entryY=0.5;entryDx=0;entryDy=0;" parent="1" source="OUS-oGFCs6h1HQ9Ki9yX-166" target="OUS-oGFCs6h1HQ9Ki9yX-77" edge="1">
          <mxGeometry relative="1" as="geometry">
            <Array as="points">
              <mxPoint x="49" y="2240" />
              <mxPoint x="49" y="1305" />
            </Array>
          </mxGeometry>
        </mxCell>
        <mxCell id="OUS-oGFCs6h1HQ9Ki9yX-166" value="更新 lastTimeStamp 与 size" style="rounded=1;whiteSpace=wrap;html=1;absoluteArcSize=1;arcSize=14;strokeWidth=2;" parent="1" vertex="1">
          <mxGeometry x="124" y="2210" width="130" height="60" as="geometry" />
        </mxCell>
        <mxCell id="OUS-oGFCs6h1HQ9Ki9yX-171" value="结束" style="strokeWidth=2;html=1;shape=mxgraph.flowchart.terminator;whiteSpace=wrap;" parent="1" vertex="1">
          <mxGeometry x="429" y="1275" width="100" height="60" as="geometry" />
        </mxCell>
        <mxCell id="OUS-oGFCs6h1HQ9Ki9yX-172" value="T" style="text;html=1;align=center;verticalAlign=middle;resizable=0;points=[];autosize=1;strokeColor=none;fillColor=none;" parent="1" vertex="1">
          <mxGeometry x="194" y="1360" width="30" height="30" as="geometry" />
        </mxCell>
        <mxCell id="OUS-oGFCs6h1HQ9Ki9yX-173" value="T" style="text;html=1;align=center;verticalAlign=middle;resizable=0;points=[];autosize=1;strokeColor=none;fillColor=none;" parent="1" vertex="1">
          <mxGeometry x="149" y="1510" width="30" height="30" as="geometry" />
        </mxCell>
        <mxCell id="OUS-oGFCs6h1HQ9Ki9yX-174" value="T" style="text;html=1;align=center;verticalAlign=middle;resizable=0;points=[];autosize=1;strokeColor=none;fillColor=none;" parent="1" vertex="1">
          <mxGeometry x="320" y="1590" width="30" height="30" as="geometry" />
        </mxCell>
        <mxCell id="OUS-oGFCs6h1HQ9Ki9yX-175" value="T" style="text;html=1;align=center;verticalAlign=middle;resizable=0;points=[];autosize=1;strokeColor=none;fillColor=none;" parent="1" vertex="1">
          <mxGeometry x="320" y="1889" width="30" height="30" as="geometry" />
        </mxCell>
        <mxCell id="OUS-oGFCs6h1HQ9Ki9yX-176" value="T" style="text;html=1;align=center;verticalAlign=middle;resizable=0;points=[];autosize=1;strokeColor=none;fillColor=none;" parent="1" vertex="1">
          <mxGeometry x="569" y="1780" width="30" height="30" as="geometry" />
        </mxCell>
        <mxCell id="OUS-oGFCs6h1HQ9Ki9yX-177" value="F" style="text;html=1;align=center;verticalAlign=middle;resizable=0;points=[];autosize=1;strokeColor=none;fillColor=none;" parent="1" vertex="1">
          <mxGeometry x="269" y="1268" width="30" height="30" as="geometry" />
        </mxCell>
        <mxCell id="OUS-oGFCs6h1HQ9Ki9yX-178" value="F" style="text;html=1;align=center;verticalAlign=middle;resizable=0;points=[];autosize=1;strokeColor=none;fillColor=none;" parent="1" vertex="1">
          <mxGeometry x="249" y="1419" width="30" height="30" as="geometry" />
        </mxCell>
        <mxCell id="OUS-oGFCs6h1HQ9Ki9yX-179" value="F" style="text;html=1;align=center;verticalAlign=middle;resizable=0;points=[];autosize=1;strokeColor=none;fillColor=none;" parent="1" vertex="1">
          <mxGeometry x="409" y="1510" width="30" height="30" as="geometry" />
        </mxCell>
        <mxCell id="OUS-oGFCs6h1HQ9Ki9yX-180" value="F" style="text;html=1;align=center;verticalAlign=middle;resizable=0;points=[];autosize=1;strokeColor=none;fillColor=none;" parent="1" vertex="1">
          <mxGeometry x="399" y="1790" width="30" height="30" as="geometry" />
        </mxCell>
        <mxCell id="OUS-oGFCs6h1HQ9Ki9yX-182" value="F" style="text;html=1;align=center;verticalAlign=middle;resizable=0;points=[];autosize=1;strokeColor=none;fillColor=none;" parent="1" vertex="1">
          <mxGeometry x="509" y="1889" width="30" height="30" as="geometry" />
        </mxCell>
        <mxCell id="wPySskJd2ucsSnRAgLdS-13" style="edgeStyle=orthogonalEdgeStyle;rounded=0;orthogonalLoop=1;jettySize=auto;html=1;exitX=0.5;exitY=1;exitDx=0;exitDy=0;exitPerimeter=0;" parent="1" source="wPySskJd2ucsSnRAgLdS-6" target="OUS-oGFCs6h1HQ9Ki9yX-71" edge="1">
          <mxGeometry relative="1" as="geometry">
            <mxPoint x="284" y="570" as="targetPoint" />
            <Array as="points">
              <mxPoint x="284" y="730" />
              <mxPoint x="418" y="730" />
            </Array>
          </mxGeometry>
        </mxCell>
        <mxCell id="wPySskJd2ucsSnRAgLdS-15" style="edgeStyle=orthogonalEdgeStyle;rounded=0;orthogonalLoop=1;jettySize=auto;html=1;exitX=0;exitY=0.5;exitDx=0;exitDy=0;exitPerimeter=0;entryX=0.5;entryY=0;entryDx=0;entryDy=0;" parent="1" source="wPySskJd2ucsSnRAgLdS-6" target="wPySskJd2ucsSnRAgLdS-16" edge="1">
          <mxGeometry relative="1" as="geometry">
            <mxPoint x="129" y="480" as="targetPoint" />
          </mxGeometry>
        </mxCell>
        <mxCell id="wPySskJd2ucsSnRAgLdS-6" value="outbox 缓存是否存在" style="strokeWidth=2;html=1;shape=mxgraph.flowchart.decision;whiteSpace=wrap;" parent="1" vertex="1">
          <mxGeometry x="234" y="390" width="100" height="100" as="geometry" />
        </mxCell>
        <mxCell id="wPySskJd2ucsSnRAgLdS-7" style="edgeStyle=orthogonalEdgeStyle;rounded=0;orthogonalLoop=1;jettySize=auto;html=1;exitX=0;exitY=0.5;exitDx=0;exitDy=0;exitPerimeter=0;entryX=0.5;entryY=0;entryDx=0;entryDy=0;entryPerimeter=0;" parent="1" source="OUS-oGFCs6h1HQ9Ki9yX-13" target="wPySskJd2ucsSnRAgLdS-6" edge="1">
          <mxGeometry relative="1" as="geometry" />
        </mxCell>
        <mxCell id="wPySskJd2ucsSnRAgLdS-18" style="edgeStyle=orthogonalEdgeStyle;rounded=0;orthogonalLoop=1;jettySize=auto;html=1;exitX=0.5;exitY=1;exitDx=0;exitDy=0;entryX=0.5;entryY=0;entryDx=0;entryDy=0;" parent="1" source="wPySskJd2ucsSnRAgLdS-16" target="OUS-oGFCs6h1HQ9Ki9yX-71" edge="1">
          <mxGeometry relative="1" as="geometry">
            <Array as="points">
              <mxPoint x="175" y="730" />
              <mxPoint x="418" y="730" />
            </Array>
          </mxGeometry>
        </mxCell>
        <mxCell id="wPySskJd2ucsSnRAgLdS-16" value="向缓存中添加该帖子的索引" style="rounded=1;whiteSpace=wrap;html=1;absoluteArcSize=1;arcSize=14;strokeWidth=2;" parent="1" vertex="1">
          <mxGeometry x="110" y="550" width="130" height="60" as="geometry" />
        </mxCell>
        <mxCell id="wPySskJd2ucsSnRAgLdS-19" value="T" style="text;html=1;align=center;verticalAlign=middle;resizable=0;points=[];autosize=1;strokeColor=none;fillColor=none;" parent="1" vertex="1">
          <mxGeometry x="204" y="410" width="30" height="30" as="geometry" />
        </mxCell>
        <mxCell id="wPySskJd2ucsSnRAgLdS-20" value="F" style="text;html=1;align=center;verticalAlign=middle;resizable=0;points=[];autosize=1;strokeColor=none;fillColor=none;" parent="1" vertex="1">
          <mxGeometry x="285" y="490" width="30" height="30" as="geometry" />
        </mxCell>
        <mxCell id="FtUdTVxQBX1jpSCOM2J4-3" style="edgeStyle=orthogonalEdgeStyle;rounded=0;orthogonalLoop=1;jettySize=auto;html=1;exitX=0.5;exitY=1;exitDx=0;exitDy=0;exitPerimeter=0;entryX=0.5;entryY=0;entryDx=0;entryDy=0;" edge="1" parent="1" source="FtUdTVxQBX1jpSCOM2J4-1" target="OUS-oGFCs6h1HQ9Ki9yX-71">
          <mxGeometry relative="1" as="geometry">
            <Array as="points">
              <mxPoint x="569" y="730" />
              <mxPoint x="418" y="730" />
            </Array>
          </mxGeometry>
        </mxCell>
        <mxCell id="FtUdTVxQBX1jpSCOM2J4-5" style="edgeStyle=orthogonalEdgeStyle;rounded=0;orthogonalLoop=1;jettySize=auto;html=1;exitX=1;exitY=0.5;exitDx=0;exitDy=0;exitPerimeter=0;entryX=0.5;entryY=0;entryDx=0;entryDy=0;" edge="1" parent="1" source="FtUdTVxQBX1jpSCOM2J4-1" target="FtUdTVxQBX1jpSCOM2J4-4">
          <mxGeometry relative="1" as="geometry" />
        </mxCell>
        <mxCell id="FtUdTVxQBX1jpSCOM2J4-1" value="inbox 缓存是否存在" style="strokeWidth=2;html=1;shape=mxgraph.flowchart.decision;whiteSpace=wrap;" vertex="1" parent="1">
          <mxGeometry x="519" y="560" width="100" height="100" as="geometry" />
        </mxCell>
        <mxCell id="FtUdTVxQBX1jpSCOM2J4-2" style="edgeStyle=orthogonalEdgeStyle;rounded=0;orthogonalLoop=1;jettySize=auto;html=1;exitX=0.5;exitY=1;exitDx=0;exitDy=0;entryX=0.5;entryY=0;entryDx=0;entryDy=0;entryPerimeter=0;" edge="1" parent="1" source="OUS-oGFCs6h1HQ9Ki9yX-21" target="FtUdTVxQBX1jpSCOM2J4-1">
          <mxGeometry relative="1" as="geometry" />
        </mxCell>
        <mxCell id="FtUdTVxQBX1jpSCOM2J4-6" style="edgeStyle=orthogonalEdgeStyle;rounded=0;orthogonalLoop=1;jettySize=auto;html=1;exitX=0.5;exitY=1;exitDx=0;exitDy=0;entryX=0.5;entryY=0;entryDx=0;entryDy=0;" edge="1" parent="1" source="FtUdTVxQBX1jpSCOM2J4-4" target="OUS-oGFCs6h1HQ9Ki9yX-71">
          <mxGeometry relative="1" as="geometry">
            <Array as="points">
              <mxPoint x="745" y="730" />
              <mxPoint x="418" y="730" />
            </Array>
          </mxGeometry>
        </mxCell>
        <mxCell id="FtUdTVxQBX1jpSCOM2J4-4" value="向缓存中添加该帖子索引" style="rounded=1;whiteSpace=wrap;html=1;absoluteArcSize=1;arcSize=14;strokeWidth=2;" vertex="1" parent="1">
          <mxGeometry x="680" y="640" width="130" height="60" as="geometry" />
        </mxCell>
        <mxCell id="FtUdTVxQBX1jpSCOM2J4-7" value="F" style="text;html=1;align=center;verticalAlign=middle;resizable=0;points=[];autosize=1;strokeColor=none;fillColor=none;" vertex="1" parent="1">
          <mxGeometry x="539" y="660" width="30" height="30" as="geometry" />
        </mxCell>
        <mxCell id="FtUdTVxQBX1jpSCOM2J4-8" value="T" style="text;html=1;align=center;verticalAlign=middle;resizable=0;points=[];autosize=1;strokeColor=none;fillColor=none;" vertex="1" parent="1">
          <mxGeometry x="619" y="580" width="30" height="30" as="geometry" />
        </mxCell>
      </root>
    </mxGraphModel>
  </diagram>
</mxfile>
